<?plantuml 1.2026.2beta3?><svg xmlns="http://www.w3.org/2000/svg" xmlns:xlink="http://www.w3.org/1999/xlink" contentStyleType="text/css" data-diagram-type="DESCRIPTION" height="1162px" preserveAspectRatio="none" style="width:727px;height:1162px;background:#FFFFFF;" version="1.1" viewBox="0 0 727 1162" width="727px" zoomAndPan="magnify"><title>Diagramme de Cas d'Utilisation - PC Store</title><defs/><g><g class="title" data-source-line="1"><text fill="#000000" font-family="sans-serif" font-size="14" font-weight="bold" lengthAdjust="spacing" textLength="332.4863" x="190.4368" y="22.9951">Diagramme de Cas d'Utilisation - PC Store</text></g><!--cluster Site PC Store--><g class="cluster" data-qualified-name="Site PC Store" data-source-line="14" id="ent0005"><rect fill="none" height="1112" rx="2.5" ry="2.5" style="stroke:#181818;stroke-width:1;" width="283.84" x="437.52" y="44.2969"/><text fill="#000000" font-family="sans-serif" font-size="14" font-weight="bold" lengthAdjust="spacing" textLength="104.1455" x="527.3672" y="59.292">Site PC Store</text></g><!--entity UC1--><g class="entity" data-qualified-name="Site PC Store.UC1" data-source-line="18" id="ent0008"><ellipse cx="579.4361" cy="339.2981" fill="#D3D3D3" rx="91.7561" ry="20.7512" style="stroke:#000000;stroke-width:0.5;"/><text fill="#000000" font-family="sans-serif" font-size="14" lengthAdjust="spacing" textLength="157.7051" x="500.5836" y="343.9465">Consulter le catalogue</text></g><!--entity UC2--><g class="entity" data-qualified-name="Site PC Store.UC2" data-source-line="19" id="ent0009"><ellipse cx="579.4376" cy="415.2944" fill="#D3D3D3" rx="91.5376" ry="20.7075" style="stroke:#000000;stroke-width:0.5;"/><text fill="#000000" font-family="sans-serif" font-size="14" lengthAdjust="spacing" textLength="157.2129" x="500.8311" y="419.9428">Rechercher un produit</text></g><!--entity UC3--><g class="entity" data-qualified-name="Site PC Store.UC3" data-source-line="20" id="ent0010"><ellipse cx="579.4408" cy="493.299" fill="#D3D3D3" rx="98.8608" ry="22.1722" style="stroke:#000000;stroke-width:0.5;"/><text fill="#000000" font-family="sans-serif" font-size="14" lengthAdjust="spacing" textLength="173.5439" x="492.6689" y="497.9475">Visualiser d&#233;tails produit</text></g><!--entity UC4--><g class="entity" data-qualified-name="Site PC Store.UC4" data-source-line="21" id="ent0011"><ellipse cx="579.4411" cy="565.3005" fill="#D3D3D3" rx="48.6111" ry="14.5236" style="stroke:#000000;stroke-width:0.5;"/><text fill="#000000" font-family="sans-serif" font-size="14" lengthAdjust="spacing" textLength="64.5039" x="547.1892" y="569.9489">S'inscrire</text></g><!--entity UC5--><g class="entity" data-qualified-name="Site PC Store.UC5" data-source-line="22" id="ent0012"><ellipse cx="579.4365" cy="268.2962" fill="#D3D3D3" rx="64.4965" ry="15.2993" style="stroke:#000000;stroke-width:0.5;"/><text fill="#000000" font-family="sans-serif" font-size="14" lengthAdjust="spacing" textLength="92.1279" x="533.3725" y="272.9446">Se connecter</text></g><!--entity UC6--><g class="entity" data-qualified-name="Site PC Store.UC6" data-source-line="23" id="ent0013"><ellipse cx="579.4368" cy="95.2942" fill="#D3D3D3" rx="69.6868" ry="16.3374" style="stroke:#000000;stroke-width:0.5;"/><text fill="#000000" font-family="sans-serif" font-size="14" lengthAdjust="spacing" textLength="105.5879" x="526.6428" y="99.9427">G&#233;rer le panier</text></g><!--entity UC7--><g class="entity" data-qualified-name="Site PC Store.UC7" data-source-line="24" id="ent0014"><ellipse cx="579.4358" cy="777.298" fill="#D3D3D3" rx="79.2558" ry="18.2512" style="stroke:#000000;stroke-width:0.5;"/><text fill="#000000" font-family="sans-serif" font-size="14" lengthAdjust="spacing" textLength="128.9189" x="514.9763" y="781.9465">Passer commande</text></g><!--entity UC8--><g class="entity" data-qualified-name="Site PC Store.UC8" data-source-line="25" id="ent0015"><ellipse cx="579.4401" cy="174.3009" fill="#D3D3D3" rx="125.9201" ry="27.584" style="stroke:#000000;stroke-width:0.5;"/><text fill="#000000" font-family="sans-serif" font-size="14" lengthAdjust="spacing" textLength="231.9434" x="463.4684" y="178.9493">Consulter historique commandes</text></g><!--entity UC9--><g class="entity" data-qualified-name="Site PC Store.UC9" data-source-line="26" id="ent0016"><ellipse cx="579.4393" cy="633.2967" fill="#D3D3D3" rx="78.5493" ry="18.1099" style="stroke:#000000;stroke-width:0.5;"/><text fill="#000000" font-family="sans-serif" font-size="14" lengthAdjust="spacing" textLength="127.2441" x="515.8172" y="637.9452">Suivre commande</text></g><!--entity UC10--><g class="entity" data-qualified-name="Site PC Store.UC10" data-source-line="27" id="ent0017"><ellipse cx="579.4445" cy="705.3018" fill="#D3D3D3" rx="80.1245" ry="18.4249" style="stroke:#000000;stroke-width:0.5;"/><text fill="#000000" font-family="sans-serif" font-size="14" lengthAdjust="spacing" textLength="130.9697" x="513.9597" y="709.9502">Mettre &#224; jour profil</text></g><!--entity UC11--><g class="entity" data-qualified-name="Site PC Store.UC11" data-source-line="28" id="ent0018"><ellipse cx="579.44" cy="846.2969" fill="#D3D3D3" rx="68.15" ry="16.03" style="stroke:#000000;stroke-width:0.5;"/><text fill="#000000" font-family="sans-serif" font-size="14" lengthAdjust="spacing" textLength="101.6777" x="528.6011" y="850.9453">G&#233;rer produits</text></g><!--entity UC12--><g class="entity" data-qualified-name="Site PC Store.UC12" data-source-line="29" id="ent0019"><ellipse cx="579.4422" cy="914.2993" fill="#D3D3D3" rx="74.4622" ry="17.2924" style="stroke:#000000;stroke-width:0.5;"/><text fill="#000000" font-family="sans-serif" font-size="14" lengthAdjust="spacing" textLength="117.4209" x="520.7317" y="918.9477">G&#233;rer cat&#233;gories</text></g><!--entity UC13--><g class="entity" data-qualified-name="Site PC Store.UC13" data-source-line="30" id="ent0020"><ellipse cx="579.4376" cy="985.2944" fill="#D3D3D3" rx="79.6376" ry="18.3275" style="stroke:#000000;stroke-width:0.5;"/><text fill="#000000" font-family="sans-serif" font-size="14" lengthAdjust="spacing" textLength="129.8213" x="514.5269" y="989.9428">G&#233;rer commandes</text></g><!--entity UC14--><g class="entity" data-qualified-name="Site PC Store.UC14" data-source-line="31" id="ent0021"><ellipse cx="579.4433" cy="1053.3015" fill="#D3D3D3" rx="63.6233" ry="15.1247" style="stroke:#000000;stroke-width:0.5;"/><text fill="#000000" font-family="sans-serif" font-size="14" lengthAdjust="spacing" textLength="89.7832" x="534.5517" y="1057.95">G&#233;rer clients</text></g><!--entity UC15--><g class="entity" data-qualified-name="Site PC Store.UC15" data-source-line="32" id="ent0022"><ellipse cx="579.4391" cy="1122.2967" fill="#D3D3D3" rx="80.0491" ry="18.4098" style="stroke:#000000;stroke-width:0.5;"/><text fill="#000000" font-family="sans-serif" font-size="14" lengthAdjust="spacing" textLength="130.792" x="514.0431" y="1126.9451">Consulter rapports</text></g><!--entity V--><g class="entity" data-qualified-name="V" data-source-line="10" id="ent0002"><ellipse cx="299.8209" cy="408.6469" fill="#F1F1F1" rx="8" ry="8" style="stroke:#181818;stroke-width:0.5;"/><path d="M299.8209,416.6469 L299.8209,443.6469 M286.8209,424.6469 L312.8209,424.6469 M299.8209,443.6469 L286.8209,458.6469 M299.8209,443.6469 L312.8209,458.6469" fill="none" style="stroke:#181818;stroke-width:0.5;"/><text fill="#000000" font-family="sans-serif" font-size="14" lengthAdjust="spacing" textLength="53.3818" x="273.13" y="473.142">Visiteur</text></g><!--entity C--><g class="entity" data-qualified-name="C" data-source-line="11" id="ent0003"><ellipse cx="191.8651" cy="600.6469" fill="#F1F1F1" rx="8" ry="8" style="stroke:#181818;stroke-width:0.5;"/><path d="M191.8651,608.6469 L191.8651,635.6469 M178.8651,616.6469 L204.8651,616.6469 M191.8651,635.6469 L178.8651,650.6469 M191.8651,635.6469 L204.8651,650.6469" fill="none" style="stroke:#181818;stroke-width:0.5;"/><text fill="#000000" font-family="sans-serif" font-size="14" lengthAdjust="spacing" textLength="40.5303" x="171.6" y="665.142">Client</text></g><!--entity A--><g class="entity" data-qualified-name="A" data-source-line="12" id="ent0004"><ellipse cx="58.3018" cy="920.6469" fill="#F1F1F1" rx="8" ry="8" style="stroke:#181818;stroke-width:0.5;"/><path d="M58.3018,928.6469 L58.3018,955.6469 M45.3018,936.6469 L71.3018,936.6469 M58.3018,955.6469 L45.3018,970.6469 M58.3018,955.6469 L71.3018,970.6469" fill="none" style="stroke:#181818;stroke-width:0.5;"/><text fill="#000000" font-family="sans-serif" font-size="14" lengthAdjust="spacing" textLength="104.6035" x="6" y="985.142">Administrateur</text></g><!--link C to V--><g class="link" data-entity-1="ent0003" data-entity-2="ent0002" data-link-type="extension" data-source-line="15" id="lnk6"><path d="M212.55,594.6369 C231.04,561.1269 249.944,526.8769 268.914,492.4969" fill="none" id="C-to-V" style="stroke:#000000;stroke-width:1;"/><polygon fill="none" points="277.61,476.7369,263.6606,489.5983,274.1674,495.3956,277.61,476.7369" style="stroke:#000000;stroke-width:1;"/></g><!--link A to C--><g class="link" data-entity-1="ent0004" data-entity-2="ent0003" data-link-type="extension" data-source-line="16" id="lnk7"><path d="M75.17,911.6969 C100.53,850.0269 143.0455,746.6248 168.3055,685.1848" fill="none" id="A-to-C" style="stroke:#000000;stroke-width:1;"/><polygon fill="none" points="175.15,668.5369,162.7562,682.9033,173.8548,687.4663,175.15,668.5369" style="stroke:#000000;stroke-width:1;"/></g><!--link V to UC1--><g class="link" data-entity-1="ent0002" data-entity-2="ent0008" data-link-type="dependency" data-source-line="34" id="lnk23"><path d="M326.95,421.5869 C336.12,416.0569 346.6,410.0969 356.52,405.2969 C405.91,381.4069 459.886,365.6284 504.966,354.7984" fill="none" id="V-to-UC1" style="stroke:#000000;stroke-width:1;"/><polygon fill="#000000" points="510.8,353.3969,501.1146,351.6099,505.9383,354.5648,502.9834,359.3886,510.8,353.3969" style="stroke:#000000;stroke-width:1;"/></g><!--link V to UC2--><g class="link" data-entity-1="ent0002" data-entity-2="ent0009" data-link-type="dependency" data-source-line="35" id="lnk24"><path d="M326.94,436.1369 C364.6,433.0169 429.9205,427.6023 487.0105,422.8723" fill="none" id="V-to-UC2" style="stroke:#000000;stroke-width:1;"/><polygon fill="#000000" points="492.99,422.3769,483.6905,419.1337,488.0071,422.7897,484.351,427.1063,492.99,422.3769" style="stroke:#000000;stroke-width:1;"/></g><!--link V to UC3--><g class="link" data-entity-1="ent0002" data-entity-2="ent0010" data-link-type="dependency" data-source-line="36" id="lnk25"><path d="M326.94,443.4669 C367.1,451.4269 439.6144,465.7906 498.2544,477.4106" fill="none" id="V-to-UC3" style="stroke:#000000;stroke-width:1;"/><polygon fill="#000000" points="504.14,478.5769,496.0892,472.9038,499.2354,477.605,494.5341,480.7512,504.14,478.5769" style="stroke:#000000;stroke-width:1;"/></g><!--link V to UC4--><g class="link" data-entity-1="ent0002" data-entity-2="ent0011" data-link-type="dependency" data-source-line="37" id="lnk26"><path d="M311.38,476.7369 C319.75,499.6369 333.9,527.1169 356.52,542.2969 C410.06,578.2469 481.8645,577.7992 529.6945,572.6492" fill="none" id="V-to-UC4" style="stroke:#000000;stroke-width:1;"/><polygon fill="#000000" points="535.66,572.0069,526.2835,568.9934,530.6887,572.5421,527.1399,576.9474,535.66,572.0069" style="stroke:#000000;stroke-width:1;"/></g><!--link V to UC5--><g class="link" data-entity-1="ent0002" data-entity-2="ent0012" data-link-type="dependency" data-source-line="38" id="lnk27"><path d="M325.65,399.7069 C348.51,367.6569 385.5,323.8069 429.52,301.2969 C457.34,287.0669 485.228,279.9113 513.598,275.2913" fill="none" id="V-to-UC5" style="stroke:#000000;stroke-width:1;"/><polygon fill="#000000" points="519.52,274.3269,509.9941,271.8255,514.585,275.1305,511.2799,279.7214,519.52,274.3269" style="stroke:#000000;stroke-width:1;"/></g><!--link C to UC6--><g class="link" data-entity-1="ent0003" data-entity-2="ent0013" data-link-type="dependency" data-source-line="40" id="lnk28"><path d="M196.75,591.9669 C204.19,531.2869 224.29,410.8269 273.13,321.2969 C325.85,224.6869 336.03,187.3769 429.52,129.2969 C454.52,113.7669 479.9222,106.2964 507.3722,101.7064" fill="none" id="C-to-UC6" style="stroke:#000000;stroke-width:1;"/><polygon fill="#000000" points="513.29,100.7169,503.7535,98.256,508.3585,101.5415,505.0729,106.1464,513.29,100.7169" style="stroke:#000000;stroke-width:1;"/></g><!--link C to UC7--><g class="link" data-entity-1="ent0003" data-entity-2="ent0014" data-link-type="dependency" data-source-line="41" id="lnk29"><path d="M212.55,641.2069 C252.42,662.9169 346.03,711.9669 429.52,741.2969 C458,751.3069 484.6412,758.223 511.9912,764.263" fill="none" id="C-to-UC7" style="stroke:#000000;stroke-width:1;"/><polygon fill="#000000" points="517.85,765.5569,509.9243,759.7102,512.9676,764.4787,508.1992,767.522,517.85,765.5569" style="stroke:#000000;stroke-width:1;"/></g><!--link C to UC8--><g class="link" data-entity-1="ent0003" data-entity-2="ent0015" data-link-type="dependency" data-source-line="42" id="lnk30"><path d="M199.08,592.0569 C208.68,541.0469 230.63,449.3869 273.13,382.2969 C324.18,301.7169 349.29,286.9069 429.52,235.2969 C453.48,219.8769 476.3886,209.2174 502.0186,199.3774" fill="none" id="C-to-UC8" style="stroke:#000000;stroke-width:1;"/><polygon fill="#000000" points="507.62,197.2269,497.7843,196.7184,502.9522,199.019,500.6516,204.1869,507.62,197.2269" style="stroke:#000000;stroke-width:1;"/></g><!--link C to UC9--><g class="link" data-entity-1="ent0003" data-entity-2="ent0016" data-link-type="dependency" data-source-line="43" id="lnk31"><path d="M212.52,630.4469 C264.85,630.8569 403.7902,631.94 494.7602,632.65" fill="none" id="C-to-UC9" style="stroke:#000000;stroke-width:1;"/><polygon fill="#000000" points="500.76,632.6969,491.7915,628.6268,495.7602,632.6579,491.7291,636.6265,500.76,632.6969" style="stroke:#000000;stroke-width:1;"/></g><!--link C to UC10--><g class="link" data-entity-1="ent0003" data-entity-2="ent0017" data-link-type="dependency" data-source-line="44" id="lnk32"><path d="M212.52,634.1169 C268.15,644.9369 422.5405,674.9709 511.4005,692.2609" fill="none" id="C-to-UC10" style="stroke:#000000;stroke-width:1;"/><polygon fill="#000000" points="517.29,693.4069,509.2197,687.7616,512.382,692.4519,507.6917,695.6143,517.29,693.4069" style="stroke:#000000;stroke-width:1;"/></g><!--link A to UC11--><g class="link" data-entity-1="ent0004" data-entity-2="ent0018" data-link-type="dependency" data-source-line="46" id="lnk33"><path d="M110.83,922.1169 C120.52,917.6369 130.71,913.4469 140.6,910.2969 C153.9,906.0569 157.81,907.4069 171.6,905.2969 C295.59,886.3069 435.1386,866.4235 514.1786,855.2935" fill="none" id="A-to-UC11" style="stroke:#000000;stroke-width:1;"/><polygon fill="#000000" points="520.12,854.4569,510.6502,851.7509,515.1688,855.1541,511.7657,859.6727,520.12,854.4569" style="stroke:#000000;stroke-width:1;"/></g><!--link A to UC12--><g class="link" data-entity-1="ent0004" data-entity-2="ent0019" data-link-type="dependency" data-source-line="47" id="lnk34"><path d="M110.78,940.4669 C120.65,938.8569 130.92,937.3669 140.6,936.2969 C268.07,922.1769 411.4213,917.2314 498.6213,915.4214" fill="none" id="A-to-UC12" style="stroke:#000000;stroke-width:1;"/><polygon fill="#000000" points="504.62,915.2969,495.5389,911.4845,499.6211,915.4006,495.7049,919.4828,504.62,915.2969" style="stroke:#000000;stroke-width:1;"/></g><!--link A to UC13--><g class="link" data-entity-1="ent0004" data-entity-2="ent0020" data-link-type="dependency" data-source-line="48" id="lnk35"><path d="M110.98,953.7769 C202.92,959.9769 389.3036,972.5432 496.3836,979.7632" fill="none" id="A-to-UC13" style="stroke:#000000;stroke-width:1;"/><polygon fill="#000000" points="502.37,980.1669,493.6595,975.5705,497.3813,979.8305,493.1213,983.5524,502.37,980.1669" style="stroke:#000000;stroke-width:1;"/></g><!--link A to UC14--><g class="link" data-entity-1="ent0004" data-entity-2="ent0021" data-link-type="dependency" data-source-line="49" id="lnk36"><path d="M110.98,960.5469 C211.38,980.4669 425.6647,1022.9892 523.7447,1042.4492" fill="none" id="A-to-UC14" style="stroke:#000000;stroke-width:1;"/><polygon fill="#000000" points="529.63,1043.6169,521.5805,1037.9418,524.7256,1042.6438,520.0236,1045.7889,529.63,1043.6169" style="stroke:#000000;stroke-width:1;"/></g><!--link A to UC15--><g class="link" data-entity-1="ent0004" data-entity-2="ent0022" data-link-type="dependency" data-source-line="50" id="lnk37"><path d="M111.08,971.4669 C182.08,999.9969 314.03,1051.2569 429.52,1086.2969 C458.91,1095.2169 486.2512,1102.0783 513.8212,1108.3883" fill="none" id="A-to-UC15" style="stroke:#000000;stroke-width:1;"/><polygon fill="#000000" points="519.67,1109.7269,511.7893,1103.8198,514.796,1108.6114,510.0044,1111.6181,519.67,1109.7269" style="stroke:#000000;stroke-width:1;"/></g><!--link UC7 to UC5--><g class="link" data-entity-1="ent0014" data-entity-2="ent0012" data-link-type="dependency" data-source-line="52" id="lnk38"><path d="M500.61,774.8569 C474.8,770.1469 448.03,760.4469 429.52,741.2969 C365.97,675.5769 397.47,630.7469 388.25,539.7969 C378.68,445.3269 359.04,374.1069 429.52,301.2969 C451.39,278.6969 478.9782,270.5074 508.8082,267.6074" fill="none" id="UC7-to-UC5" style="stroke:#000000;stroke-width:1;stroke-dasharray:7,7;"/><polygon fill="#000000" points="514.78,267.0269,505.4352,263.9165,509.8035,267.5107,506.2093,271.879,514.78,267.0269" style="stroke:#000000;stroke-width:1;"/><text fill="#000000" font-family="sans-serif" font-size="13" lengthAdjust="spacing" textLength="63.0068" x="357.52" y="535.8638">&#171;include&#187;</text></g><!--link UC7 to UC6--><g class="link" data-entity-1="ent0014" data-entity-2="ent0013" data-link-type="dependency" data-source-line="53" id="lnk39"><path d="M500.31,775.1369 C474.47,770.4569 447.76,760.6969 429.52,741.2969 C357.02,664.2069 397.46,612.2169 388.25,506.7969 C373.57,338.6569 316.85,254.9669 429.52,129.2969 C449.47,107.0369 474.7017,98.4531 503.4717,95.0431" fill="none" id="UC7-to-UC6" style="stroke:#000000;stroke-width:1;stroke-dasharray:7,7;"/><polygon fill="#000000" points="509.43,94.3369,500.0218,91.424,504.4648,94.9254,500.9634,99.3684,509.43,94.3369" style="stroke:#000000;stroke-width:1;"/><text fill="#000000" font-family="sans-serif" font-size="13" lengthAdjust="spacing" textLength="63.0068" x="357.52" y="502.8638">&#171;include&#187;</text></g><!--link UC8 to UC5--><g class="link" data-entity-1="ent0015" data-entity-2="ent0012" data-link-type="dependency" data-source-line="54" id="lnk40"><path d="M579.44,202.0069 C579.44,218.5769 579.44,233.0069 579.44,246.7769" fill="none" id="UC8-to-UC5" style="stroke:#000000;stroke-width:1;stroke-dasharray:7,7;"/><polygon fill="#000000" points="579.44,252.7769,583.44,243.7769,579.44,247.7769,575.44,243.7769,579.44,252.7769" style="stroke:#000000;stroke-width:1;"/><text fill="#000000" font-family="sans-serif" font-size="13" lengthAdjust="spacing" textLength="61.1851" x="537.44" y="232.0038">&#171;extend&#187;</text></g><?plantuml-src RPFDRjim3CVlVWeYbvuop4cQfaOH8FM0NZQWMD3S1Pjrk2gIHqdRYgtlickU8oyssh4zDJ1W0_puYVoJbZrvZV29LCNgS40e4NBbeBnwygJ9AK_Mm1GUSzXwovWa6fyzU0jCrTv3IOn5moJkXKojf0ZKgdXH5MxzgrHkqifK6YCWE2oKG_YT0DmBNB4DfiojjWoVcx8Fh5wRdEKI-Ho_rm9ARCDiVyQXjqGLeWmcEtBaCV04HF-kZ-QQqFWsblUnJNaWGywp6lXDaWnAORALGiF8arPdbcSmdVvPGxRB6dVJktdZojCFDScjSK5xP91IXV9AsofWs-KfJsFoAnPxvEQ5OA1cMmRo7JYBGHajAFaQ0fQderUatGK-Z_7j5HbNC77VTV4kAwgiCJ8jSfU_ZlCFfoEVnTVAqC0iO-PHkKPCOGy7PSg-pStu6lQoQilqFU1mm7KdLk-41Vh1U5dqDaQ-eFU2dFx2DnkusS4pwNwr7qUcwBRKzqlJ4KQ-qUbOYS91LZeRmowqf_CngBrk0x8OtmYhkhRy7xi-Nw6TNAbrTqbwUnRPyyXUH7PtFE_SPMJVHFOgicyZkrrSyslrVXexizYPnyuYTZeDqX4-j9eWWxixCeKE9QxNSMevabh5f_2NHrDAvkqV?></g></svg>